<?xml version="1.0" encoding="UTF-8" standalone="no"?>
<!DOCTYPE svg PUBLIC "-//W3C//DTD SVG 1.1//EN"
"http://www.w3.org/Graphics/SVG/1.1/DTD/svg11.dtd">


<!-- Page 1 -->
<svg x="0" y="0" width="566" height="333" version="1.1" xmlns="http://www.w3.org/2000/svg" xmlns:xlink="http://www.w3.org/1999/xlink"
style="display: block;margin-left: auto;margin-right: auto;">
<defs>
<clipPath id="c0_1"><path d="M504.1,248.7l0,-33l-45.2,0L496,232.2l-37.1,16.5ZM0,333.1L0,0L566.8,0l0,333.1Z" /></clipPath>

<style type="text/css"><![CDATA[

.g1_1{
fill: #00008E;
}
.g3_1{
fill: none;
stroke: #00008E;
stroke-width: 7;
stroke-linecap: butt;
stroke-linejoin: miter;
}
.g2_1{
fill: none;
stroke: #00008E;
stroke-width: 2;
stroke-linecap: butt;
stroke-linejoin: bevel;
}
.g4_1{
fill: #00008E;
stroke: #00008E;
stroke-width: 6;
stroke-linecap: butt;
stroke-linejoin: miter;
}

.s1_1{
font-size: 122.22px;
font-family: SDLEPX-Times-BoldItalic1;
fill: #FFFF00;
}
.s2_1{
font-size: 139.03px;
font-family: SDLEPX-Times-BoldItalic1;
fill: #000000;
}

]]></style>

</defs>
<path d="M0,0
L0,333
L566,333
L566,0 Z " 
fill="#FFFFFF" stroke="none" />
<path fill-rule="evenodd" d="M356.4,232.2l-0.1,0.3l-0.1,0.6l-0.2,1.1l-0.3,1.7l-0.3,2.3l-0.4,2.7l-0.6,3.1l-1.1,6.8l-0.5,3.1l-0.4,2.8l-0.3,2.2l-0.3,1.7l-0.2,1.1l-0.1,0.7l-0.1,0.2l-0.1,0.2l-0.1,0.5L351,264l-0.4,1l-0.6,1.4l-0.6,1.5l-0.6,1.9l-0.9,1.9l-0.9,2l-1.1,2.1l-1.2,2.3l-1.3,2.5l-1.6,2.7l-1.8,2.8l-2.1,2.9l-2.2,2.9l-2,2.4l-1.6,2.1l-1.3,1.5l-0.9,1l-0.7,0.8l-0.4,0.4l-0.3,0.4l-0.4,0.4l-0.4,0.3l-0.8,0.7l-1.1,0.9l-1.5,1.3l-2,1.6l-2.5,1.9l-2.8,2.2l-3,2.1l-2.6,1.8l-2.2,1.4l-1.7,1.1l-1.2,0.7l-0.8,0.5l-0.9,0.6l-0.4,0.2l-0.6,0.3l-0.9,0.4l-1.2,0.6l-1.9,0.7l-2.4,1l-3.1,1.1l-3.5,1.2l-3.1,1l-3,0.8l-2.8,0.7l-2.7,0.5l-2.4,0.5l-2.3,0.3l-2.2,0.3l-2,0.2l-1.9,0.2l-1.8,0.1l-1.6,0.1l-1.5,0.1l-1.1,0l-0.9,0.1l-1.1,0l-0.3,-0.1l-0.6,-0.1L258.2,328l-1.7,-0.2l-5,-0.8l-3.1,-0.6L245,325.9l-3.3,-0.5l-3.1,-0.5l-5,-0.9l-1.7,-0.1l-1.1,-0.2l-0.7,-0.1l-0.2,-0.1l-0.2,-0.1l-0.3,-0.1l-0.5,-0.2l-0.8,-0.2L227,322.5l-1.3,-0.6l-1.3,-0.5l-1.7,-0.7L221.1,320l-1.9,-0.8l-3.8,-1.9l-2.1,-1.1l-2.2,-1.3l-2.5,-1.5l-2.5,-1.7l-2.6,-1.9l-2.9,-2.2l-2.4,-1.9l-2.1,-1.6l-1.5,-1.3l-1,-0.9l-0.8,-0.7l-0.4,-0.3l-0.8,-0.8l-0.3,-0.4l-0.7,-0.8l-0.9,-1l-1.3,-1.5l-1.6,-2.1l-1.9,-2.4L182.7,289l-1.9,-2.5L179.2,284l-1.4,-2l-1,-1.8L176,279l-0.6,-0.9L175,277.5L174.7,277L174,275.7l-0.2,-0.6l-0.5,-1L172,270.9l-0.9,-2.4l-1,-2.8L169,262.6l-1,-3.1l-0.8,-3l-0.7,-2.9L166,251l-0.5,-2.4l-0.3,-2.3l-0.3,-2.2l-0.3,-2l-0.1,-1.9l-0.2,-1.8l-0.1,-1.6l-0.1,-1.5l0,-1.1l0,-0.9l0,-1.1l0,-0.3l0.1,-0.6l0.2,-1.1l0.3,-1.8l0.4,-2.2l0.3,-2.7l0.6,-3.1l0.5,-3.4l0.6,-3.3l0.5,-3.1l0.4,-2.8l0.4,-2.2l0.2,-1.7l0.2,-1.1l0.1,-0.7l0.1,-0.2l0.1,-0.2l0.3,-0.9l0.2,-0.7L170,199l0.6,-1.3l0.5,-1.4l0.7,-1.6l0.7,-1.6l0.8,-1.9l1.9,-3.8l1.1,-2.1l1.3,-2.2l1.5,-2.5l1.7,-2.5l1.9,-2.7l2.2,-2.8l1.9,-2.5l1.6,-2l1.3,-1.5l0.9,-1l0.7,-0.8l0.3,-0.4l0.8,-0.8l0.4,-0.3l0.8,-0.7l1,-0.9l1.5,-1.3l2.1,-1.6l2.4,-2l2.9,-2.2l2.5,-1.8l2.5,-1.6l2,-1.4l1.8,-1l1.2,-0.9l0.9,-0.5l0.6,-0.5l0.5,-0.2l1.3,-0.7l0.6,-0.2l1,-0.5l1.4,-0.6l1.9,-0.7l2.3,-0.9l2.8,-1l3.1,-1.1l3.1,-1l3,-0.8l2.9,-0.7l2.6,-0.5l2.4,-0.5l2.3,-0.4l2.1,-0.2l2,-0.3l1.9,-0.1l1.9,-0.2l1.5,-0.1l1.5,-0.1l1.1,0l0.9,-0.1l1.1,0l0.3,0.1l0.6,0.1l1.1,0.2l1.8,0.3l2.2,0.3l2.7,0.4L272,138l6.8,1.1l3.1,0.5l2.8,0.4l2.2,0.3l1.7,0.3l1.1,0.2l0.7,0.1l0.2,0.1l0.2,0.1l0.5,0.1l0.7,0.2l1,0.5l1.4,0.5L296,143l1.7,0.7l1.9,0.9l2,0.9l2.2,1.1l2.2,1.2l2.5,1.3l2.7,1.6l2.8,1.8l3,2.1l2.8,2.2l2.5,2l2,1.6l1.5,1.3l1.1,0.9l0.8,0.7l0.4,0.3l0.4,0.4l0.3,0.4l0.4,0.4l0.7,0.8l0.9,1l1.3,1.5l1.6,2l2,2.5l2.2,2.8l2,3l1.8,2.6l1.4,2.2l1.1,1.7l0.7,1.2l0.5,0.8l0.3,0.6l0.3,0.3l0.2,0.5l0.3,0.5l0.3,0.9l0.6,1.3l0.7,1.9l1,2.4l1.1,3.1l1.2,3.5l1,3.1l0.9,3l0.6,2.8l0.5,2.7l0.5,2.4l0.4,2.3l0.2,2.1l0.2,2l0.2,1.9l0.2,1.9l0.1,1.5l0.1,1.5l0,1.1l0.1,0.9l0,1.1Z" class="g1_1" />
<path d="M356.4,232.2l-0.1,0.3l-0.1,0.6l-0.2,1.1l-0.3,1.7l-0.3,2.3l-0.4,2.7l-0.6,3.1l-1.1,6.8l-0.5,3.1l-0.4,2.8l-0.3,2.2l-0.3,1.7l-0.2,1.1l-0.1,0.7l-0.1,0.2l-0.1,0.2l-0.1,0.5L351,264l-0.4,1l-0.6,1.4l-0.6,1.5l-0.6,1.9l-0.9,1.9l-0.9,2l-1.1,2.1l-1.2,2.3l-1.3,2.5l-1.6,2.7l-1.8,2.8l-2.1,2.9l-2.2,2.9l-2,2.4l-1.6,2.1l-1.3,1.5l-0.9,1l-0.7,0.8l-0.4,0.4l-0.3,0.4l-0.4,0.4l-0.4,0.3l-0.8,0.7l-1.1,0.9l-1.5,1.3l-2,1.6l-2.5,1.9l-2.8,2.2l-3,2.1l-2.6,1.8l-2.2,1.4l-1.7,1.1l-1.2,0.7l-0.8,0.5l-0.9,0.6l-0.4,0.2l-0.6,0.3l-0.9,0.4l-1.2,0.6l-1.9,0.7l-2.4,1l-3.1,1.1l-3.5,1.2l-3.1,1l-3,0.8l-2.8,0.7l-2.7,0.5l-2.4,0.5l-2.3,0.3l-2.2,0.3l-2,0.2l-1.9,0.2l-1.8,0.1l-1.6,0.1l-1.5,0.1l-1.1,0l-0.9,0.1l-1.1,0l-0.3,-0.1l-0.6,-0.1L258.2,328l-1.7,-0.2l-5,-0.8l-3.1,-0.6L245,325.9l-3.3,-0.5l-3.1,-0.5l-5,-0.9l-1.7,-0.1l-1.1,-0.2l-0.7,-0.1l-0.2,-0.1l-0.2,-0.1l-0.3,-0.1l-0.5,-0.2l-0.8,-0.2L227,322.5l-1.3,-0.6l-1.3,-0.5l-1.7,-0.7L221.1,320l-1.9,-0.8l-3.8,-1.9l-2.1,-1.1l-2.2,-1.3l-2.5,-1.5l-2.5,-1.7l-2.6,-1.9l-2.9,-2.2l-2.4,-1.9l-2.1,-1.6l-1.5,-1.3l-1,-0.9l-0.8,-0.7l-0.4,-0.3l-0.8,-0.8l-0.3,-0.4l-0.7,-0.8l-0.9,-1l-1.3,-1.5l-1.6,-2.1l-1.9,-2.4L182.7,289l-1.9,-2.5L179.2,284l-1.4,-2l-1,-1.8L176,279l-0.6,-0.9L175,277.5L174.7,277L174,275.7l-0.2,-0.6l-0.5,-1L172,270.9l-0.9,-2.4l-1,-2.8L169,262.6l-1,-3.1l-0.8,-3l-0.7,-2.9L166,251l-0.5,-2.4l-0.3,-2.3l-0.3,-2.2l-0.3,-2l-0.1,-1.9l-0.2,-1.8l-0.1,-1.6l-0.1,-1.5l0,-1.1l0,-0.9l0,-1.1l0,-0.3l0.1,-0.6l0.2,-1.1l0.3,-1.8l0.4,-2.2l0.3,-2.7l0.6,-3.1l0.5,-3.4l0.6,-3.3l0.5,-3.1l0.4,-2.8l0.4,-2.2l0.2,-1.7l0.2,-1.1l0.1,-0.7l0.1,-0.2l0.1,-0.2l0.3,-0.9l0.2,-0.7L170,199l0.6,-1.3l0.5,-1.4l0.7,-1.6l0.7,-1.6l0.8,-1.9l1.9,-3.8l1.1,-2.1l1.3,-2.2l1.5,-2.5l1.7,-2.5l1.9,-2.7l2.2,-2.8l1.9,-2.5l1.6,-2l1.3,-1.5l0.9,-1l0.7,-0.8l0.3,-0.4l0.8,-0.8l0.4,-0.3l0.8,-0.7l1,-0.9l1.5,-1.3l2.1,-1.6l2.4,-2l2.9,-2.2l2.5,-1.8l2.5,-1.6l2,-1.4l1.8,-1l1.2,-0.9l0.9,-0.5l0.6,-0.5l0.5,-0.2l1.3,-0.7l0.6,-0.2l1,-0.5l1.4,-0.6l1.9,-0.7l2.3,-0.9l2.8,-1l3.1,-1.1l3.1,-1l3,-0.8l2.9,-0.7l2.6,-0.5l2.4,-0.5l2.3,-0.4l2.1,-0.2l2,-0.3l1.9,-0.1l1.9,-0.2l1.5,-0.1l1.5,-0.1l1.1,0l0.9,-0.1l1.1,0l0.3,0.1l0.6,0.1l1.1,0.2l1.8,0.3l2.2,0.3l2.7,0.4L272,138l6.8,1.1l3.1,0.5l2.8,0.4l2.2,0.3l1.7,0.3l1.1,0.2l0.7,0.1l0.2,0.1l0.2,0.1l0.5,0.1l0.7,0.2l1,0.5l1.4,0.5L296,143l1.7,0.7l1.9,0.9l2,0.9l2.2,1.1l2.2,1.2l2.5,1.3l2.7,1.6l2.8,1.8l3,2.1l2.8,2.2l2.5,2l2,1.6l1.5,1.3l1.1,0.9l0.8,0.7l0.4,0.3l0.4,0.4l0.3,0.4l0.4,0.4l0.7,0.8l0.9,1l1.3,1.5l1.6,2l2,2.5l2.2,2.8l2,3l1.8,2.6l1.4,2.2l1.1,1.7l0.7,1.2l0.5,0.8l0.3,0.6l0.3,0.3l0.2,0.5l0.3,0.5l0.3,0.9l0.6,1.3l0.7,1.9l1,2.4l1.1,3.1l1.2,3.5l1,3.1l0.9,3l0.6,2.8l0.5,2.7l0.5,2.4l0.4,2.3l0.2,2.1l0.2,2l0.2,1.9l0.2,1.9l0.1,1.5l0.1,1.5l0,1.1l0.1,0.9l0,1.1Z" class="g2_1" />
<g clip-path="url(#c0_1)">
<path d="M61.5,232.5l441,0" class="g3_1" />
</g>
<path fill-rule="evenodd" d="M458.9,248.7l34.6,-16.5L458.9,215.7l-12.4,16.5l12.4,16.5Z" class="g4_1" />
<text 
x="229" 
y="258" 
dx="0" 
class="s1_1"
>n</text>

<text 
x="86" 
y="97" 
dx="0,0,0,0,0,0" 
class="s2_1"
>McStas</text>


<path d="M0,333
L0,0
L566,0
L566,333 z "
fill="none"
stroke-width="0"
stroke-linecap="butt"
stroke-linejoin="miter"
stroke="#FFFFFF" />

<!-- Any embedded fonts defined here -->
<style type="text/css" ><![CDATA[

@font-face {
	font-family: SDLEPX-Times-BoldItalic1;
	src :url("SDLEPX-Times-BoldItalic.woff") format("woff");
}

]]></style>

<title>mcstas_logo Page1</title>
</svg>
