<?xml version="1.0" encoding="utf-8"?>
<!-- Generator: Adobe Illustrator 16.0.0, SVG Export Plug-In . SVG Version: 6.00 Build 0)  -->
<!DOCTYPE svg PUBLIC "-//W3C//DTD SVG 1.1//EN" "http://www.w3.org/Graphics/SVG/1.1/DTD/svg11.dtd">
<svg version="1.1" id="Layer_3" xmlns="http://www.w3.org/2000/svg" xmlns:xlink="http://www.w3.org/1999/xlink" x="0px" y="0px"
	 width="256.165px" height="220.986px" viewBox="0 0 256.165 220.986" enable-background="new 0 0 256.165 220.986"
	 xml:space="preserve">
<path d="M189.333,85.641H211v19.666l45.165-27l-45.165-26v18.667h-22.183C186.881,31.45,154.226,0,114.223,0
	C74.219,0,41.564,31.45,39.627,70.974H0v14.667h38.667v86.355c0,0-33.957,44.666-32.001,45.144
	c6.833,1.667,18.188-5.988,53.521-5.322s47.372,9.169,54.037,9.169s22.442-10.18,53.938-9.741c43.838,0.61,53.755,7.312,55.13,5.562
	s-33.957-43.833-33.957-43.833V85.641z M101.632,52.817l7.716-3.329l-6.985,29.805c4.493-9.473,8.961-16.675,13.399-21.603
	c4.439-4.926,8.69-7.39,12.752-7.39c2.002,0,3.627,0.663,4.872,1.99c1.244,1.327,1.868,3.1,1.868,5.319
	c0,1.246-0.298,3.005-0.893,5.279l-0.812,3.411l-2.438,9.908l-0.812,3.167c-0.812,3.248-1.22,5.74-1.22,7.471
	c0,1.734,0.297,3.127,0.894,4.182c0.596,1.057,1.381,1.585,2.355,1.585c1.678,0,4.358-2.002,8.039-6.01l1.301,1.137l-0.812,0.894
	c-3.088,3.627-5.36,6.078-6.824,7.35c-1.46,1.271-2.813,1.908-4.06,1.908c-1.679,0-3.101-0.853-4.263-2.558
	c-1.167-1.706-1.747-3.83-1.747-6.375c0-1.732,0.325-4.304,0.976-7.715l3.168-17.217c0.432-2.707,0.647-4.601,0.647-5.685
	c0-1.137-0.296-2.003-0.893-2.599c-0.596-0.595-1.407-0.893-2.436-0.893c-3.735,0-8.34,4.006-13.807,12.019
	c-2.653,3.845-4.846,7.647-6.579,11.411c-1.733,3.764-3.683,8.974-5.846,15.633l-0.731,2.193l-5.441,1.705L101.632,52.817z
	 M111.226,211.95c-1.728,0.689-20.195-6.409-43.058-7.178c-34.379-1.155-49.51,6.736-50.669,5.7s25.163-36.059,29.599-37.746
	c4.437-1.687,61.957-1.701,64.128,0S112.953,211.261,111.226,211.95z M46.933,165.475l-0.1-29.501l-0.099-29.266
	c11.99,25.227,37.698,42.671,67.488,42.671c30.359,0,56.469-18.125,68.149-44.135l0.126,60.23L46.933,165.475z M209.779,208.049
	c-1.057,0.971-15.688-4.479-49.615-3.324c-22.563,0.77-40.789,7.867-42.494,7.178c-1.704-0.689-2.144-37.522,0-39.223
	s58.909-1.687,63.288,0C185.335,174.366,211.752,204.18,209.779,208.049z"/>
</svg>
