<?xml version="1.0" encoding="utf-8"?>
<!-- Generator: Adobe Illustrator 16.0.3, SVG Export Plug-In . SVG Version: 6.00 Build 0)  -->
<!DOCTYPE svg PUBLIC "-//W3C//DTD SVG 1.1//EN" "http://www.w3.org/Graphics/SVG/1.1/DTD/svg11.dtd">
<svg version="1.1" id="Layer_1" xmlns="http://www.w3.org/2000/svg" xmlns:xlink="http://www.w3.org/1999/xlink" x="0px" y="0px"
	 width="349.5px" height="279.2px" viewBox="0 0 349.5 279.2" enable-background="new 0 0 349.5 279.2" xml:space="preserve">
<path fill="#23b9ce" d="M247.9,74.7h21.7v19.7l45.2-27l-45.2-26V60h-28.9c-4.2-33.8-33.1-60-68.1-60c-35,0-63.8,26.2-68.1,60H53.2
	v14.7h44v86.4c0,0-34,44.7-32,45.1c6.8,1.7,18.2-6,53.5-5.3s47.4,9.2,54,9.2s22.4-10.2,53.9-9.7c43.8,0.6,53.8,7.3,55.1,5.6
	s-34-43.8-34-43.8V74.7z M160.4,47.7l7.4-3.2l-6.7,28.6c4.3-9.1,8.6-16,12.9-20.7c4.3-4.7,8.3-7.1,12.2-7.1c1.9,0,3.5,0.6,4.7,1.9
	c1.2,1.3,1.8,3,1.8,5.1c0,1.2-0.3,2.9-0.9,5.1l-0.8,3.3l-2.3,9.5l-0.8,3c-0.8,3.1-1.2,5.5-1.2,7.2c0,1.7,0.3,3,0.9,4
	c0.6,1,1.3,1.5,2.3,1.5c1.6,0,4.2-1.9,7.7-5.8l1.2,1.1l-0.8,0.9c-3,3.5-5.1,5.8-6.6,7.1c-1.4,1.2-2.7,1.8-3.9,1.8
	c-1.6,0-3-0.8-4.1-2.5c-1.1-1.6-1.7-3.7-1.7-6.1c0-1.7,0.3-4.1,0.9-7.4l3-16.5c0.4-2.6,0.6-4.4,0.6-5.5c0-1.1-0.3-1.9-0.9-2.5
	c-0.6-0.6-1.4-0.9-2.3-0.9c-3.6,0-8,3.8-13.3,11.5c-2.5,3.7-4.7,7.3-6.3,11c-1.7,3.6-3.5,8.6-5.6,15l-0.7,2.1l-5.2,1.6L160.4,47.7z
	 M169.4,201c-1.7,0.7-19.9-6.4-42.5-7.2c-33.9-1.2-47.7,5-48.8,3.9c-1.1-1,23.7-34.3,28-36c4.4-1.7,61.1-1.7,63.2,0
	C171.6,163.5,171.1,200.3,169.4,201z M105.5,154.5l-0.1-29.5l-0.1-43.3c6.1,31.6,33.9,55.5,67.4,55.5c33.3,0,61-23.7,67.3-55.1
	l0.2,72.4L105.5,154.5z M266.3,196.8c-1,1-15.2-4.4-48-3.3c-21.8,0.8-39.5,7.7-41.1,7c-1.6-0.7-2.1-36.7,0-38.4
	c2.1-1.7,57-1.7,61.3,0C242.7,163.8,268.2,193,266.3,196.8z"/>
<g>
	<path fill="#23b9ce" d="M17.4,242.3c9.7,0,14.8,7.5,14.8,16.2c0,0.8-0.1,2.4-0.1,2.4H5c0.1,8.9,6.4,14,13.7,14
		c6.4,0,10.6-4.3,10.6-4.3l2.3,3.6c0,0-5.1,5-13.1,5C8,279.2,0,271.7,0,260.8C0,249.2,7.9,242.3,17.4,242.3z M27.2,257.2
		c-0.3-7.3-4.8-10.9-9.9-10.9c-5.8,0-10.9,3.8-12.1,10.9H27.2z"/>
	<path fill="#23b9ce" d="M40.7,256.3h19.9v4.3H40.7V256.3z"/>
	<path fill="#23b9ce" d="M71.9,248.8c0-1-0.6-1.5-1.5-1.5h-2.9v-4.1h4.9c2.9,0,4.3,1.3,4.3,3.9v1.6c0,1.4-0.1,2.5-0.1,2.5h0.1
		c1.3-3.2,5.7-8.9,14-8.9c8.8,0,11.8,5,11.8,13.7v16.7c0,1.1,0.6,1.5,1.5,1.5h2.9v4.1h-5c-3,0-4.3-1.3-4.3-4.3v-16.9
		c0-5.5-0.8-10.4-7.6-10.4c-6,0-11.2,4.1-12.8,9.9c-0.4,1.5-0.6,3.1-0.6,4.8v16.9h-4.8V248.8z"/>
	<path fill="#23b9ce" d="M128.5,242.3c9.7,0,14.8,7.5,14.8,16.2c0,0.8-0.1,2.4-0.1,2.4h-27c0.1,8.9,6.4,14,13.7,14
		c6.4,0,10.6-4.3,10.6-4.3l2.3,3.6c0,0-5.1,5-13.1,5c-10.4,0-18.4-7.6-18.4-18.4C111.2,249.2,119.1,242.3,128.5,242.3z M138.4,257.2
		c-0.3-7.3-4.8-10.9-9.9-10.9c-5.8,0-10.9,3.8-12.1,10.9H138.4z"/>
	<path fill="#23b9ce" d="M152.7,248.8c0-1-0.6-1.5-1.5-1.5h-2.9v-4.1h5c3,0,4.3,1.3,4.3,4.1v17c0,5.5,0.9,10.4,7.7,10.4
		c8,0,13-7.1,13-14.7v-16.9h4.8v29.5c0,1.1,0.6,1.5,1.5,1.5h2.9v4.1h-4.8c-2.9,0-4.3-1.3-4.3-3.9v-1.6c0-1.4,0.1-2.5,0.1-2.5h-0.1
		c-1.4,3.4-6,8.9-13.7,8.9c-8.3,0-11.8-4.5-11.8-13.7V248.8z"/>
	<path fill="#23b9ce" d="M195.4,247.1h-4.6v-4h4.7v-9.7h4.7v9.7h8.8v4h-8.8v17.9c0,8.3,5.2,9.3,7.9,9.3c1,0,1.6-0.1,1.6-0.1v4.3
		c0,0-0.8,0.1-2,0.1c-4.1,0-12.3-1.3-12.3-13.1V247.1z"/>
	<path fill="#23b9ce" d="M218.5,248.8c0-1-0.6-1.5-1.5-1.5H214v-4.1h4.9c2.9,0,4.3,1.2,4.3,4v2.4c0,1.5-0.1,2.7-0.1,2.7h0.1
		c1.7-5.3,5.6-9.4,11.1-9.4c1,0,1.9,0.2,1.9,0.2v4.7c0,0-0.8-0.1-1.8-0.1c-5,0-8.7,3.9-10.2,9.1c-0.7,2.2-1,4.6-1,6.9v14.8h-4.8
		V248.8z"/>
	<path fill="#23b9ce" d="M257.7,242.3c10.3,0,18.6,7.8,18.6,18.3c0,10.6-8.3,18.6-18.6,18.6c-10.3,0-18.6-8-18.6-18.6
		C239.1,250.2,247.4,242.3,257.7,242.3z M257.7,274.9c7.5,0,13.7-6.2,13.7-14.4c0-8-6.2-13.9-13.7-13.9c-7.6,0-13.7,6-13.7,13.9
		C244,268.8,250.2,274.9,257.7,274.9z"/>
	<path fill="#23b9ce" d="M285.2,248.8c0-1-0.6-1.5-1.5-1.5h-2.9v-4.1h4.9c2.9,0,4.3,1.3,4.3,3.9v1.6c0,1.4-0.1,2.5-0.1,2.5h0.1
		c1.3-3.2,5.7-8.9,14-8.9c8.8,0,11.8,5,11.8,13.7v16.7c0,1.1,0.6,1.5,1.5,1.5h2.9v4.1h-5c-3,0-4.3-1.3-4.3-4.3v-16.9
		c0-5.5-0.8-10.4-7.6-10.4c-6,0-11.2,4.1-12.8,9.9c-0.4,1.5-0.6,3.1-0.6,4.8v16.9h-4.8V248.8z"/>
	<path fill="#23b9ce" d="M326.4,269.8c0,0,3.9,5.3,10.9,5.3c3.9,0,7.4-1.9,7.4-5.6c0-7.7-19.7-6.3-19.7-17.6c0-6.4,5.5-9.5,12.5-9.5
		c3.6,0,10.7,1.4,10.7,6.4v3h-4.5V250c0-2.6-3.8-3.6-6.1-3.6c-4.9,0-7.8,1.7-7.8,5.1c0,7.9,19.7,6.1,19.7,17.8
		c0,5.9-5.3,9.9-12.3,9.9c-9.2,0-13.5-6.2-13.5-6.2L326.4,269.8z"/>
</g>
</svg>
